<svg width="534" height="534" viewBox="0 0 534 534" fill="none" xmlns="http://www.w3.org/2000/svg">
<path d="M267 522.562C383.228 522.562 477.45 469.037 477.45 403.01C477.45 336.983 383.228 283.458 267 283.458C150.772 283.458 56.5508 336.983 56.5508 403.01C56.5508 469.037 150.772 522.562 267 522.562Z" fill="#F5F5F5"/>
<path d="M349.791 467.549L211.635 387.78C201.884 382.152 193.98 367.05 193.98 354.053V58.2165C193.98 45.219 201.884 39.2489 211.635 44.8772L349.791 124.646C359.542 130.274 367.445 145.376 367.445 158.374V454.21C367.445 467.196 359.542 473.177 349.791 467.549Z" fill="#455A64"/>
<path d="M365.704 115.344L227.537 35.575C223.372 33.172 219.548 32.8943 216.526 34.3681C216.156 34.5534 215.799 34.764 215.458 34.9983L199.972 44.0015C203.09 42.1325 207.17 42.2713 211.645 44.8559L349.801 124.625C359.552 130.253 367.455 145.355 367.455 158.352V454.188C367.455 461.066 365.245 465.936 361.72 468.243L377.003 459.347C380.902 457.275 383.411 452.202 383.411 444.929V149.093C383.411 136.074 375.455 120.972 365.704 115.344Z" fill="#37474F"/>
<path d="M367.445 158.352V454.188C367.445 461.066 365.234 465.936 361.71 468.243L377.004 459.347C380.902 457.275 383.412 452.202 383.412 444.929V149.093L367.499 158.331L367.445 158.352Z" fill="#263238"/>
<path d="M383.359 172.044L367.445 181.229V188.406L383.359 179.21V172.044Z" fill="#37474F"/>
<path d="M376.384 219.773C374.964 220.595 373.811 219.72 373.811 217.829V202.397C373.825 201.432 374.065 200.484 374.512 199.629C374.959 198.774 375.6 198.036 376.384 197.473C377.805 196.651 378.958 197.473 378.958 199.417V214.849C378.944 215.814 378.704 216.762 378.257 217.617C377.81 218.472 377.168 219.211 376.384 219.773Z" fill="#37474F"/>
<path d="M373.799 217.872V202.397C373.814 201.432 374.054 200.484 374.501 199.629C374.948 198.774 375.589 198.036 376.373 197.473C376.608 197.309 376.88 197.209 377.165 197.183C377.45 197.157 377.736 197.205 377.997 197.324L376.064 196.33C375.799 196.203 375.506 196.148 375.213 196.17C374.921 196.193 374.639 196.292 374.397 196.458C373.613 197.021 372.97 197.759 372.522 198.614C372.073 199.469 371.83 200.417 371.813 201.382V216.804C371.773 217.193 371.832 217.587 371.985 217.947C372.138 218.308 372.38 218.624 372.689 218.865L374.707 219.933C374.386 219.702 374.132 219.388 373.973 219.026C373.813 218.664 373.753 218.265 373.799 217.872Z" fill="#455A64"/>
<path d="M376.384 257.121C374.964 257.943 373.811 257.121 373.811 255.177V239.745C373.826 238.78 374.066 237.832 374.513 236.977C374.96 236.123 375.601 235.384 376.384 234.821C377.805 233.999 378.958 234.821 378.958 236.775V252.197C378.946 253.162 378.706 254.111 378.259 254.966C377.812 255.822 377.17 256.56 376.384 257.121Z" fill="#37474F"/>
<path d="M373.8 255.177V239.745C373.815 238.78 374.056 237.832 374.503 236.978C374.95 236.123 375.591 235.384 376.374 234.821C376.609 234.66 376.882 234.562 377.166 234.536C377.45 234.51 377.736 234.556 377.997 234.672L376.064 233.668C375.801 233.535 375.507 233.477 375.213 233.499C374.919 233.522 374.638 233.624 374.398 233.796C373.612 234.357 372.968 235.094 372.519 235.949C372.07 236.805 371.828 237.754 371.814 238.719V254.184C371.772 254.574 371.831 254.967 371.984 255.328C372.138 255.689 372.38 256.004 372.689 256.245L374.708 257.313C374.373 257.076 374.111 256.751 373.951 256.374C373.791 255.997 373.738 255.582 373.8 255.177Z" fill="#455A64"/>
<path d="M344.964 132.945L209.2 54.532C208.633 54.2061 207.991 54.0339 207.337 54.0327C206.684 54.0315 206.041 54.2013 205.473 54.5251C204.905 54.849 204.432 55.3157 204.1 55.8789C203.769 56.4422 203.59 57.0824 203.582 57.736V354.053C203.582 363.942 210.599 376.085 219.164 381.03L351.596 457.531C352.224 457.893 352.936 458.082 353.661 458.082C354.385 458.081 355.097 457.89 355.725 457.528C356.352 457.165 356.873 456.644 357.236 456.017C357.598 455.39 357.79 454.678 357.791 453.953V155.191C357.844 147.032 352.055 137.024 344.964 132.945Z" fill="#407BFF"/>
<path opacity="0.9" d="M344.964 132.945L209.2 54.532C208.633 54.2061 207.991 54.0339 207.337 54.0327C206.684 54.0315 206.041 54.2013 205.473 54.5251C204.905 54.849 204.432 55.3157 204.1 55.8789C203.769 56.4422 203.59 57.0824 203.582 57.736V354.053C203.582 363.942 210.599 376.085 219.164 381.03L351.596 457.531C352.224 457.893 352.936 458.082 353.661 458.082C354.385 458.081 355.097 457.89 355.725 457.528C356.352 457.165 356.873 456.644 357.236 456.017C357.598 455.39 357.79 454.678 357.791 453.953V155.191C357.844 147.032 352.055 137.024 344.964 132.945Z" fill="white"/>
<path d="M249.805 75.0056L251.909 83.8593L296.914 109.812L304.689 105.668L249.805 75.0056Z" fill="#455A64"/>
<path d="M263.038 83.5601C263.038 85.034 261.97 85.6214 260.731 84.8951C260.066 84.4536 259.514 83.8622 259.118 83.1685C258.723 82.4748 258.497 81.6981 258.456 80.9008C258.456 79.4377 259.524 78.8396 260.763 79.5765C261.428 80.0158 261.98 80.6052 262.375 81.2971C262.77 81.9891 262.997 82.7643 263.038 83.5601Z" fill="#263238"/>
<path d="M293.358 102.304C293.112 102.302 292.87 102.239 292.653 102.122L269.67 89.3061C269.345 89.1156 269.108 88.8057 269.009 88.4426C268.91 88.0796 268.957 87.6922 269.139 87.3631C269.322 87.0341 269.626 86.7895 269.986 86.6816C270.347 86.5737 270.735 86.6111 271.069 86.7857L294.063 99.6017C294.342 99.757 294.562 100.001 294.688 100.295C294.814 100.589 294.838 100.916 294.757 101.226C294.677 101.535 294.495 101.809 294.242 102.004C293.989 102.199 293.678 102.305 293.358 102.304Z" fill="#263238"/>
<path d="M232.055 116.198C230.656 115.387 229.641 116.092 229.641 117.875C229.641 118.767 229.861 119.645 230.282 120.431C230.703 121.218 231.312 121.888 232.055 122.382C232.452 122.623 232.909 122.751 233.374 122.751C233.839 122.751 234.295 122.623 234.693 122.382L236.925 126.419C236.139 126.852 235.249 127.059 234.353 127.016C233.458 126.972 232.591 126.681 231.852 126.174C230.038 125.064 228.526 123.525 227.45 121.692C226.373 119.859 225.765 117.789 225.679 115.664C225.679 111.702 228.338 110.324 232.001 112.46C234.07 113.793 235.765 115.631 236.925 117.8L234.693 119.573C234.142 118.226 233.229 117.058 232.055 116.198Z" fill="#407BFF"/>
<path d="M249.773 129.58C249.773 133.575 247.071 134.92 243.365 132.784C241.5 131.67 239.939 130.112 238.821 128.248C237.703 126.385 237.063 124.275 236.957 122.104C236.957 118.11 239.659 116.764 243.365 118.9C245.235 120.01 246.799 121.567 247.918 123.431C249.036 125.295 249.674 127.409 249.773 129.58ZM240.919 124.486C240.938 125.403 241.174 126.302 241.609 127.11C242.043 127.918 242.664 128.611 243.418 129.132C244.743 129.901 245.811 129.132 245.811 127.316C245.807 126.42 245.588 125.538 245.172 124.744C244.755 123.95 244.154 123.268 243.418 122.756C242.073 121.976 240.919 122.638 240.919 124.486Z" fill="#407BFF"/>
<path d="M254.077 125.34L258.691 134.952V128.032L262.183 130.05V143.518L258.979 141.659L254.387 132.133V139.011L250.873 136.981V123.482L254.077 125.34Z" fill="#407BFF"/>
<path d="M273.6 136.608V140.132L270.268 138.21V148.164L266.412 145.931V135.978L263.102 134.066V130.552L273.6 136.608Z" fill="#407BFF"/>
<path d="M281.119 152.521L276.74 149.99L276.142 151.549L272.19 149.264L277.114 138.637L281.076 140.922L285.818 157.135L281.706 154.764L281.119 152.521ZM280.168 148.783L278.972 144.18L277.744 147.384L280.168 148.783Z" fill="#407BFF"/>
<path d="M291.937 150.769C290.538 149.968 289.524 150.663 289.524 152.457C289.526 153.348 289.747 154.226 290.168 155.012C290.589 155.798 291.196 156.468 291.937 156.964C292.338 157.203 292.796 157.329 293.262 157.329C293.728 157.329 294.186 157.203 294.586 156.964L296.818 161.001C296.03 161.429 295.138 161.633 294.242 161.59C293.346 161.546 292.478 161.258 291.735 160.755C289.92 159.645 288.407 158.104 287.33 156.269C286.253 154.434 285.646 152.361 285.562 150.235C285.562 146.273 288.232 144.895 291.884 147.031C293.95 148.37 295.647 150.206 296.818 152.371L294.586 154.134C294.023 152.794 293.108 151.631 291.937 150.769Z" fill="#407BFF"/>
<path d="M307.349 156.099V159.612L304.017 157.69V167.676L300.161 165.444V155.49L296.851 153.578V150.064L307.349 156.099Z" fill="#407BFF"/>
<path d="M318.744 172.632C319.695 173.176 320.421 172.749 320.421 171.414V163.65L324.287 165.871V173.635C324.287 177.213 322.151 178.281 318.734 176.327C317.087 175.412 315.703 174.091 314.714 172.488C313.725 170.885 313.163 169.056 313.084 167.174V159.41L316.95 161.642V169.406C316.965 170.049 317.136 170.679 317.449 171.241C317.761 171.802 318.206 172.28 318.744 172.632Z" fill="#407BFF"/>
<path d="M330.513 172.674C330.075 172.429 329.798 172.418 329.798 172.824C329.798 174.511 335.832 176.946 335.832 181.827C335.832 184.817 333.557 184.828 330.93 183.312C328.62 181.896 326.631 180.016 325.088 177.79L326.519 175.269C327.693 177.088 329.201 178.668 330.962 179.926C331.528 180.257 331.891 180.257 331.891 179.776C331.891 178.025 325.846 175.697 325.846 170.965C325.846 168.274 327.811 167.761 330.844 169.47C332.798 170.652 334.518 172.183 335.917 173.988L334.518 176.572C333.363 175.101 332.016 173.79 330.513 172.674Z" fill="#407BFF"/>
<path d="M212.628 182.564C216.962 177.242 219.143 170.489 218.742 163.637C218.341 156.786 215.387 150.333 210.462 145.553C205.537 140.773 198.999 138.012 192.139 137.815C185.279 137.618 178.593 140 173.403 144.49C168.212 148.98 164.892 155.252 164.099 162.069C163.306 168.886 165.096 175.753 169.117 181.315C173.138 186.877 179.098 190.73 185.82 192.114C192.542 193.498 199.539 192.312 205.43 188.79L218.802 194.6L212.628 182.564Z" fill="#407BFF"/>
<path opacity="0.4" d="M212.628 182.564C216.962 177.242 219.143 170.489 218.742 163.637C218.341 156.786 215.387 150.333 210.462 145.553C205.537 140.773 198.999 138.012 192.139 137.815C185.279 137.618 178.593 140 173.403 144.49C168.212 148.98 164.892 155.252 164.099 162.069C163.306 168.886 165.096 175.753 169.117 181.315C173.138 186.877 179.098 190.73 185.82 192.114C192.542 193.498 199.539 192.312 205.43 188.79L218.802 194.6L212.628 182.564Z" fill="black"/>
<path d="M181.186 163.767C181.186 163.351 180.887 163.116 180.343 163.116C179.079 163.281 177.899 163.837 176.968 164.707L175.451 161.759C177.048 160.558 178.976 159.879 180.973 159.815C183.536 159.815 185.48 161.161 185.48 163.169C185.48 164.6 184.412 165.978 183.045 167.356L181.133 169.246H185.651V172.386H175.942V169.812L180.268 165.337C180.734 164.925 181.055 164.375 181.186 163.767Z" fill="white"/>
<path d="M193.554 159.997L190.606 167.067H191.813V164.686H195.53V167.067H196.939V169.983H195.53V172.386H191.813V169.983H186.526V167.334L189.73 159.997H193.554Z" fill="white"/>
<path d="M208.409 166.224V172.386H204.436V167.366C204.459 167.203 204.447 167.036 204.4 166.878C204.353 166.72 204.273 166.574 204.164 166.449C204.056 166.325 203.922 166.225 203.772 166.156C203.622 166.088 203.459 166.053 203.294 166.053C202.514 166.053 202.023 166.661 202.023 167.601V172.386H198.05V159.292H202.023V164.109C202.334 163.618 202.767 163.216 203.28 162.942C203.793 162.669 204.368 162.534 204.949 162.55C205.425 162.537 205.899 162.626 206.338 162.809C206.778 162.992 207.174 163.266 207.501 163.613C207.827 163.96 208.077 164.371 208.234 164.821C208.39 165.271 208.45 165.749 208.409 166.224Z" fill="white"/>
<path d="M337.958 265.462V398.161C337.96 399.662 337.567 401.137 336.818 402.438C336.069 403.738 334.991 404.819 333.692 405.57C332.392 406.321 330.918 406.717 329.417 406.718C327.917 406.718 326.442 406.324 325.142 405.573L253.672 364.306L241.005 357C236.644 354.479 233.02 350.856 230.498 346.495C227.975 342.133 226.641 337.186 226.63 332.148V199.438C226.628 197.938 227.021 196.463 227.77 195.162C228.519 193.861 229.597 192.781 230.896 192.03C232.196 191.278 233.67 190.882 235.171 190.882C236.672 190.881 238.146 191.276 239.446 192.027L323.604 240.61C327.968 243.128 331.592 246.75 334.111 251.113C336.631 255.475 337.958 260.424 337.958 265.462Z" fill="#407BFF"/>
<path opacity="0.5" d="M337.958 265.462V398.161C337.96 399.662 337.567 401.137 336.818 402.438C336.069 403.738 334.991 404.819 333.692 405.57C332.392 406.321 330.918 406.717 329.417 406.718C327.917 406.718 326.442 406.324 325.142 405.573L253.672 364.306L241.005 357C236.644 354.479 233.02 350.856 230.498 346.495C227.975 342.133 226.641 337.186 226.63 332.148V199.438C226.628 197.938 227.021 196.463 227.77 195.162C228.519 193.861 229.597 192.781 230.896 192.03C232.196 191.278 233.67 190.882 235.171 190.882C236.672 190.881 238.146 191.276 239.446 192.027L323.604 240.61C327.968 243.128 331.592 246.75 334.111 251.113C336.631 255.475 337.958 260.424 337.958 265.462Z" fill="white"/>
<path d="M133.66 169.534L91.1854 144.97C90.6966 144.631 90.131 144.42 89.5399 144.355C88.9488 144.289 88.3507 144.372 87.7998 144.596C87.6837 144.65 87.5728 144.714 87.4687 144.789L78.2305 150.203H78.2946C77.1305 150.866 76.3936 152.404 76.3936 154.604V201.852C76.3936 205.846 78.8179 210.492 81.819 212.222L124.293 236.786C124.832 237.176 125.474 237.399 126.138 237.427C126.803 237.456 127.461 237.289 128.031 236.946C128.002 236.958 127.977 236.976 127.957 237L137.131 231.66C138.327 231.019 139.085 229.46 139.085 227.228V179.905C139.085 175.91 136.704 171.264 133.66 169.534Z" fill="#407BFF"/>
<path d="M137.569 174.009C136.709 172.182 135.355 170.631 133.66 169.534L91.1853 144.97C90.6965 144.631 90.131 144.42 89.5399 144.355C88.9487 144.289 88.3507 144.372 87.7997 144.596C87.6836 144.65 87.5728 144.714 87.4687 144.789L78.2305 150.203C78.7956 149.915 79.4292 149.787 80.0621 149.834C80.695 149.881 81.3028 150.101 81.8189 150.47L124.293 175.034C126.046 176.181 127.436 177.804 128.298 179.712L137.569 174.009Z" fill="#407BFF"/>
<path d="M129.719 232.632C129.719 234.768 129.036 236.252 127.957 236.904L137.131 231.564C138.327 230.923 139.086 229.364 139.086 227.132V179.905C139.04 177.849 138.521 175.832 137.569 174.009L128.299 179.712C129.189 181.481 129.674 183.425 129.719 185.405V232.632Z" fill="#407BFF"/>
<path opacity="0.3" d="M137.569 174.009C136.709 172.182 135.355 170.631 133.66 169.534L91.1853 144.97C90.6965 144.631 90.131 144.42 89.5399 144.355C88.9487 144.289 88.3507 144.372 87.7997 144.596C87.6836 144.65 87.5728 144.714 87.4687 144.789L78.2305 150.203C78.7956 149.915 79.4292 149.787 80.0621 149.834C80.695 149.881 81.3028 150.101 81.8189 150.47L124.293 175.034C126.046 176.181 127.436 177.804 128.298 179.712L137.569 174.009Z" fill="black"/>
<path opacity="0.6" d="M129.719 232.632C129.719 234.768 129.036 236.252 127.957 236.904L137.131 231.564C138.327 230.923 139.086 229.364 139.086 227.132V179.905C139.04 177.849 138.521 175.832 137.569 174.009L128.299 179.712C129.189 181.481 129.674 183.425 129.719 185.405V232.632Z" fill="black"/>
<path d="M117.266 198.936C117.266 205.056 114.841 207.138 111.21 205.035C110.209 204.464 109.333 203.697 108.635 202.779C107.938 201.862 107.433 200.812 107.152 199.695C106.084 201.008 104.429 201.094 102.1 199.748C98.2768 197.537 95.2651 192.272 95.2651 187.156C95.2651 182.04 98.2448 180.278 102.1 182.5C104.057 183.653 105.637 185.348 106.65 187.38V185.362L110.676 187.69V198.755C110.616 199.337 110.717 199.925 110.967 200.454C111.218 200.983 111.608 201.433 112.097 201.756C113.453 202.546 114.286 201.211 114.286 197.249C114.286 190.317 109.843 182.97 103.275 179.178C96.7069 175.387 92.2747 178.025 92.2747 185.159C92.3607 188.945 93.4038 192.647 95.3068 195.921C97.2098 199.194 99.9106 201.933 103.158 203.881C104.921 204.967 106.923 205.605 108.989 205.739L109.939 209.424C107.533 209.23 105.209 208.465 103.158 207.192C94.6136 202.247 88.9639 192.293 88.9639 183.279C88.9639 174.265 94.667 170.997 103.275 175.974C111.595 180.77 117.266 190.371 117.266 198.936ZM106.714 193.799C106.735 192.445 106.404 191.108 105.755 189.92C105.105 188.731 104.159 187.731 103.008 187.017C100.872 185.768 99.3448 186.644 99.3448 189.549C99.3174 190.905 99.64 192.246 100.282 193.441C100.923 194.636 101.862 195.646 103.008 196.373C105.144 197.58 106.714 196.8 106.714 193.799Z" fill="#407BFF"/>
<g opacity="0.9">
<path d="M117.266 198.936C117.266 205.056 114.841 207.138 111.21 205.035C110.209 204.464 109.333 203.697 108.635 202.779C107.938 201.862 107.433 200.812 107.152 199.695C106.084 201.008 104.429 201.094 102.1 199.748C98.2768 197.537 95.2651 192.272 95.2651 187.156C95.2651 182.04 98.2448 180.278 102.1 182.5C104.057 183.653 105.637 185.348 106.65 187.38V185.362L110.676 187.69V198.755C110.616 199.337 110.717 199.925 110.967 200.454C111.218 200.983 111.608 201.433 112.097 201.756C113.453 202.546 114.286 201.211 114.286 197.249C114.286 190.317 109.843 182.97 103.275 179.178C96.7069 175.387 92.2747 178.025 92.2747 185.159C92.3607 188.945 93.4038 192.647 95.3068 195.921C97.2098 199.194 99.9106 201.933 103.158 203.881C104.921 204.967 106.923 205.605 108.989 205.739L109.939 209.424C107.533 209.23 105.209 208.465 103.158 207.192C94.6136 202.247 88.9639 192.293 88.9639 183.279C88.9639 174.265 94.667 170.997 103.275 175.974C111.595 180.77 117.266 190.371 117.266 198.936ZM106.714 193.799C106.735 192.445 106.404 191.108 105.755 189.92C105.105 188.731 104.159 187.731 103.008 187.017C100.872 185.768 99.3448 186.644 99.3448 189.549C99.3174 190.905 99.64 192.246 100.282 193.441C100.923 194.636 101.862 195.646 103.008 196.373C105.144 197.58 106.714 196.8 106.714 193.799Z" fill="white"/>
</g>
<path d="M133.66 253.671L91.1854 229.107C90.6972 228.767 90.131 228.555 89.5392 228.491C88.9473 228.428 88.349 228.515 87.7998 228.744C87.6837 228.798 87.5728 228.862 87.4687 228.937L78.2305 234.351H78.2946C77.1305 235.013 76.3936 236.551 76.3936 238.741V285.968C76.3936 289.973 78.8179 294.608 81.819 296.338L124.293 320.902C124.831 321.294 125.473 321.519 126.138 321.547C126.803 321.576 127.462 321.407 128.031 321.062L127.957 321.126L137.131 315.733C138.327 315.103 139.085 313.597 139.085 311.301V264.031C139.085 260.037 136.704 255.402 133.66 253.671Z" fill="#407BFF"/>
<path d="M137.569 258.146C136.712 256.317 135.357 254.766 133.66 253.671L91.1853 229.107C90.6972 228.767 90.131 228.555 89.5391 228.491C88.9473 228.428 88.349 228.515 87.7997 228.744C87.6836 228.798 87.5728 228.862 87.4687 228.937L78.2305 234.351C78.7943 234.06 79.4276 233.929 80.0608 233.975C80.6939 234.02 81.3023 234.239 81.8189 234.608L124.293 259.172C126.049 260.319 127.439 261.946 128.298 263.86L137.569 258.146Z" fill="#407BFF"/>
<path d="M129.719 316.758C129.719 318.894 129.036 320.379 127.957 321.083L137.131 315.69C138.327 315.06 139.086 313.554 139.086 311.258V264.031C139.04 261.979 138.521 259.965 137.569 258.146L128.299 263.849C129.189 265.614 129.674 267.555 129.719 269.531V316.758Z" fill="#407BFF"/>
<path opacity="0.3" d="M137.569 258.146C136.712 256.317 135.357 254.766 133.66 253.671L91.1853 229.107C90.6972 228.767 90.131 228.555 89.5391 228.491C88.9473 228.428 88.349 228.515 87.7997 228.744C87.6836 228.798 87.5728 228.862 87.4687 228.937L78.2305 234.351C78.7943 234.06 79.4276 233.929 80.0608 233.975C80.6939 234.02 81.3023 234.239 81.8189 234.608L124.293 259.172C126.049 260.319 127.439 261.946 128.298 263.86L137.569 258.146Z" fill="black"/>
<path opacity="0.6" d="M129.719 316.758C129.719 318.894 129.036 320.379 127.957 321.083L137.131 315.69C138.327 315.06 139.086 313.554 139.086 311.258V264.031C139.04 261.979 138.521 259.965 137.569 258.146L128.299 263.849C129.189 265.614 129.674 267.555 129.719 269.531V316.758Z" fill="black"/>
<path d="M98.3085 274.786L88.0664 258.146V280.692L98.3085 274.786Z" fill="#407BFF"/>
<path d="M107.825 279.581L118.046 297.278V274.764L107.825 279.581Z" fill="#407BFF"/>
<path d="M89.6152 257.388L100.135 274.476C100.18 274.513 100.219 274.556 100.253 274.604C100.262 274.646 100.262 274.69 100.253 274.732L103.382 279.816L106.03 278.566C106.072 278.522 106.118 278.482 106.169 278.449C106.274 278.388 106.39 278.351 106.511 278.342L117.191 273.333L89.6152 257.388Z" fill="#407BFF"/>
<path d="M106.276 280.307L103.414 281.653C103.303 281.704 103.183 281.73 103.061 281.728C102.914 281.729 102.768 281.693 102.639 281.622C102.51 281.55 102.402 281.447 102.324 281.322L99.1951 276.238L88.9209 282.176L116.571 298.132L106.276 280.307Z" fill="#407BFF"/>
<g opacity="0.9">
<path d="M98.3085 274.786L88.0664 258.146V280.692L98.3085 274.786Z" fill="white"/>
<path d="M107.824 279.581L118.045 297.278V274.764L107.824 279.581Z" fill="white"/>
<path d="M89.6152 257.388L100.135 274.476C100.18 274.513 100.219 274.556 100.253 274.604C100.262 274.646 100.262 274.69 100.253 274.732L103.382 279.816L106.03 278.566C106.072 278.522 106.118 278.482 106.169 278.449C106.274 278.388 106.39 278.351 106.511 278.342L117.191 273.333L89.6152 257.388Z" fill="white"/>
<path d="M106.276 280.307L103.414 281.653C103.303 281.704 103.183 281.73 103.061 281.728C102.914 281.729 102.768 281.693 102.639 281.622C102.51 281.55 102.402 281.447 102.324 281.322L99.1951 276.238L88.9209 282.176L116.571 298.132L106.276 280.307Z" fill="white"/>
</g>
<path d="M133.66 85.4399L91.1854 60.8759C90.6972 60.5353 90.131 60.3234 89.5392 60.2599C88.9473 60.1964 88.349 60.2834 87.7998 60.5128C87.6837 60.5664 87.5728 60.6308 87.4687 60.7051L78.2305 66.1198H78.2946C77.1305 66.7713 76.3936 68.3199 76.3936 70.5093V117.736C76.3936 121.731 78.8179 126.376 81.819 128.107L124.293 152.671C124.831 153.063 125.473 153.288 126.138 153.316C126.803 153.345 127.462 153.176 128.031 152.831L127.957 152.884L137.131 147.544C138.327 146.914 139.085 145.408 139.085 143.112V95.7675C139.085 91.7732 136.704 87.1274 133.66 85.4399Z" fill="#407BFF"/>
<path d="M137.569 89.8828C136.712 88.0504 135.358 86.496 133.66 85.3972L91.1853 60.8759C90.6972 60.5353 90.131 60.3234 89.5391 60.2599C88.9473 60.1964 88.349 60.2834 87.7997 60.5128C87.6836 60.5664 87.5728 60.6308 87.4687 60.7051L78.2305 66.1198C78.7943 65.8283 79.4276 65.6979 80.0608 65.7431C80.6939 65.7884 81.3023 66.0074 81.8189 66.3761L124.293 90.9401C126.049 92.0879 127.439 93.715 128.298 95.6287L137.569 89.8828Z" fill="#407BFF"/>
<path d="M129.719 148.452C129.719 150.588 129.036 152.072 127.957 152.724L137.131 147.384C138.327 146.754 139.086 145.248 139.086 142.952V95.7675C139.04 93.7153 138.521 91.7013 137.569 89.8828L128.299 95.5859C129.189 97.3507 129.674 99.2917 129.719 101.268V148.452Z" fill="#407BFF"/>
<path opacity="0.3" d="M137.569 89.8828C136.712 88.0504 135.358 86.496 133.66 85.3972L91.1853 60.8759C90.6972 60.5353 90.131 60.3234 89.5391 60.2599C88.9473 60.1964 88.349 60.2834 87.7997 60.5128C87.6836 60.5664 87.5728 60.6308 87.4687 60.7051L78.2305 66.1198C78.7943 65.8283 79.4276 65.6979 80.0608 65.7431C80.6939 65.7884 81.3023 66.0074 81.8189 66.3761L124.293 90.9401C126.049 92.0879 127.439 93.715 128.298 95.6287L137.569 89.8828Z" fill="black"/>
<path opacity="0.6" d="M129.719 148.452C129.719 150.588 129.036 152.072 127.957 152.724L137.131 147.384C138.327 146.754 139.086 145.248 139.086 142.952V95.7675C139.04 93.7153 138.521 91.7013 137.569 89.8828L128.299 95.5859C129.189 97.3507 129.674 99.2917 129.719 101.268V148.452Z" fill="black"/>
<path d="M115.824 128.16C114.19 125.468 112.546 122.82 110.912 120.107C110.652 119.593 110.29 119.138 109.847 118.771C109.404 118.403 108.891 118.131 108.338 117.971C107.547 117.811 106.757 117.629 105.945 117.394C105.656 117.274 105.413 117.064 105.251 116.796C102.577 112.22 100.452 107.345 98.918 102.272C98.8854 102.163 98.8761 102.049 98.8908 101.937C98.9055 101.824 98.9439 101.716 99.0034 101.62C99.5054 101.118 100.071 100.659 100.584 100.21C101.097 99.7617 101.364 98.7258 100.99 97.3801C100.2 94.5285 99.4413 91.677 98.651 88.8361C98.4981 88.0289 98.1352 87.2762 97.599 86.6538C97.0628 86.0313 96.3722 85.5611 95.5965 85.2903C93.8742 84.8115 92.0458 84.8787 90.3633 85.4826C89.7118 85.7282 89.3701 86.3156 89.3594 87.3302C89.6371 89.2847 89.8186 91.2177 90.1924 93.2042C92.8268 107.53 99.1636 120.702 109.203 132.72C109.465 133.119 109.817 133.45 110.231 133.688C110.644 133.925 111.108 134.062 111.584 134.087C113.247 134.048 114.843 133.432 116.102 132.346C117.053 131.492 116.956 129.975 115.824 128.16Z" fill="#407BFF"/>
<path d="M115.696 113.603C115.473 110.531 114.626 107.537 113.208 104.803C112.149 102.667 110.801 100.687 109.203 98.9181C108.786 98.4482 108.434 98.2987 108.22 98.6511C108.006 99.0035 108.22 99.5055 108.626 99.9647L109.042 100.445C111.994 103.853 113.855 108.068 114.382 112.546C114.377 112.872 114.409 113.198 114.478 113.518C114.613 113.885 114.828 114.217 115.109 114.49C115.333 114.65 115.589 114.49 115.771 114.49C115.707 114.052 115.717 113.827 115.696 113.603Z" fill="#407BFF"/>
<path d="M106.02 104.835C107.361 106.31 108.176 108.188 108.338 110.175C108.408 110.477 108.519 110.768 108.669 111.04C109.32 111.574 109.641 111.392 109.641 110.719C109.412 108.172 108.358 105.768 106.639 103.874C106.234 103.457 105.903 103.329 105.71 103.681C105.641 103.883 105.634 104.1 105.689 104.305C105.744 104.511 105.859 104.695 106.02 104.835Z" fill="#407BFF"/>
<g opacity="0.9">
<path d="M115.824 128.16C114.19 125.468 112.546 122.82 110.912 120.107C110.652 119.593 110.29 119.138 109.847 118.771C109.404 118.403 108.891 118.131 108.338 117.971C107.547 117.811 106.757 117.629 105.945 117.394C105.656 117.274 105.413 117.064 105.251 116.796C102.577 112.22 100.452 107.345 98.918 102.272C98.8854 102.163 98.8761 102.049 98.8908 101.937C98.9055 101.824 98.9439 101.716 99.0034 101.62C99.5054 101.118 100.071 100.659 100.584 100.21C101.097 99.7617 101.364 98.7258 100.99 97.3801C100.2 94.5285 99.4413 91.677 98.651 88.8361C98.4981 88.0289 98.1352 87.2762 97.599 86.6538C97.0628 86.0313 96.3722 85.5611 95.5965 85.2903C93.8742 84.8115 92.0458 84.8787 90.3633 85.4826C89.7118 85.7282 89.3701 86.3156 89.3594 87.3302C89.6371 89.2847 89.8186 91.2177 90.1924 93.2042C92.8268 107.53 99.1636 120.702 109.203 132.72C109.465 133.119 109.817 133.45 110.231 133.688C110.644 133.925 111.108 134.062 111.584 134.087C113.247 134.048 114.843 133.432 116.102 132.346C117.053 131.492 116.956 129.975 115.824 128.16Z" fill="white"/>
<path d="M115.696 113.603C115.473 110.531 114.626 107.537 113.208 104.803C112.149 102.667 110.801 100.687 109.203 98.9181C108.786 98.4482 108.434 98.2987 108.22 98.6511C108.006 99.0035 108.22 99.5055 108.626 99.9647L109.042 100.445C111.994 103.853 113.855 108.068 114.382 112.546C114.377 112.872 114.409 113.198 114.478 113.518C114.613 113.885 114.828 114.217 115.109 114.49C115.333 114.65 115.589 114.49 115.771 114.49C115.707 114.052 115.717 113.827 115.696 113.603Z" fill="white"/>
<path d="M106.02 104.835C107.361 106.31 108.176 108.188 108.338 110.175C108.408 110.477 108.519 110.768 108.669 111.04C109.32 111.574 109.641 111.392 109.641 110.719C109.412 108.172 108.358 105.768 106.639 103.874C106.234 103.457 105.903 103.329 105.71 103.681C105.641 103.883 105.634 104.1 105.689 104.305C105.744 104.511 105.859 104.695 106.02 104.835Z" fill="white"/>
</g>
</svg>
